<svg xmlns="http://www.w3.org/2000/svg" width="57" height="57" viewBox="0 0 57 57" fill="none">
  <path d="M47.6467 44.4067C50.2048 41.3289 51.9839 37.6802 52.8337 33.7694C53.6834 29.8585 53.5787 25.8006 52.5285 21.9387C51.4782 18.0769 49.5133 14.5248 46.7999 11.583C44.0866 8.64118 40.7046 6.39615 36.94 5.03782C33.1755 3.67949 29.1392 3.24783 25.1726 3.77935C21.2059 4.31088 17.4256 5.78995 14.1515 8.09145C10.8774 10.3929 8.20577 13.4492 6.36261 17.0016C4.51945 20.554 3.559 24.498 3.56251 28.5001C3.56385 34.318 5.61406 39.9496 9.35335 44.4067L9.31773 44.437C9.44242 44.5866 9.58492 44.7148 9.71317 44.8627C9.87348 45.0461 10.0463 45.2189 10.2119 45.397C10.7107 45.9385 11.2237 46.4587 11.7616 46.9467C11.9255 47.0964 12.0947 47.2353 12.2604 47.3778C12.8304 47.8694 13.4164 48.3361 14.0238 48.7707C14.1022 48.8242 14.1734 48.8936 14.2518 48.9489V48.9275C18.4237 51.8633 23.4005 53.4389 28.5018 53.4389C33.6031 53.4389 38.5799 51.8633 42.7518 48.9275V48.9489C42.8302 48.8936 42.8996 48.8242 42.9798 48.7707C43.5854 48.3343 44.1732 47.8694 44.7432 47.3778C44.9089 47.2353 45.0781 47.0946 45.242 46.9467C45.7799 46.4569 46.2929 45.9385 46.7917 45.397C46.9573 45.2189 47.1283 45.0461 47.2904 44.8627C47.4169 44.7148 47.5612 44.5866 47.6859 44.4352L47.6467 44.4067ZM28.5 14.2501C30.0854 14.2501 31.6351 14.7202 32.9533 15.601C34.2714 16.4818 35.2988 17.7336 35.9055 19.1983C36.5122 20.663 36.6709 22.2746 36.3616 23.8295C36.0523 25.3844 35.2889 26.8126 34.1679 27.9336C33.0469 29.0546 31.6187 29.8181 30.0638 30.1273C28.5089 30.4366 26.8972 30.2779 25.4326 29.6712C23.9679 29.0645 22.716 28.0371 21.8353 26.719C20.9545 25.4008 20.4844 23.8511 20.4844 22.2657C20.4844 20.1399 21.3289 18.1011 22.8321 16.5978C24.3353 15.0946 26.3741 14.2501 28.5 14.2501ZM14.2625 44.4067C14.2934 42.0678 15.2439 39.8352 16.9083 38.1918C18.5727 36.5484 20.8172 35.6263 23.1563 35.6251H33.8438C36.1828 35.6263 38.4273 36.5484 40.0917 38.1918C41.7562 39.8352 42.7066 42.0678 42.7375 44.4067C38.831 47.927 33.7587 49.8752 28.5 49.8752C23.2413 49.8752 18.169 47.927 14.2625 44.4067Z" fill="#9D9E94"/>
</svg>